<?xml version="1.0" standalone="no"?>
<!DOCTYPE svg PUBLIC "-//W3C//DTD SVG 20010904//EN"
 "http://www.w3.org/TR/2001/REC-SVG-20010904/DTD/svg10.dtd">
<svg version="1.0" xmlns="http://www.w3.org/2000/svg"
 width="928.000000pt" height="834.000000pt" viewBox="0 0 928.000000 834.000000"
 preserveAspectRatio="xMidYMid meet">

<g transform="translate(0.000000,834.000000) scale(0.100000,-0.100000)"
fill="#000000" stroke="none">
<path d="M3420 8023 c-95 -9 -227 -69 -327 -146 -63 -49 -190 -177 -268 -272
-27 -33 -52 -62 -55 -65 -3 -3 -32 -39 -65 -80 -78 -98 -258 -279 -315 -317
-72 -48 -305 -163 -330 -163 -5 0 -26 -7 -47 -16 -21 -9 -47 -20 -58 -24 -32
-12 -108 -42 -130 -51 -11 -4 -45 -18 -75 -30 -144 -59 -294 -153 -371 -232
-65 -67 -124 -167 -151 -257 -46 -153 -50 -179 -74 -480 -25 -322 -31 -381
-47 -445 -18 -73 -34 -123 -46 -150 -46 -102 -105 -208 -202 -363 -139 -224
-163 -264 -190 -322 -11 -25 -25 -53 -30 -63 -13 -24 -38 -100 -55 -164 -28
-108 -13 -333 26 -405 6 -10 10 -22 10 -28 0 -36 130 -270 265 -475 55 -83
101 -164 143 -250 80 -164 93 -231 127 -675 23 -306 35 -384 73 -485 55 -149
127 -249 237 -333 68 -52 258 -151 360 -187 28 -10 54 -22 60 -27 5 -4 15 -8
23 -8 8 0 28 -6 45 -14 18 -7 48 -19 67 -26 19 -7 55 -22 80 -32 25 -11 54
-23 65 -27 11 -5 48 -23 83 -40 195 -97 273 -170 557 -517 155 -190 301 -324
408 -377 119 -58 172 -69 325 -69 98 0 165 5 215 17 40 9 101 23 137 31 36 9
79 19 95 24 17 5 59 16 95 25 36 9 81 21 100 26 199 54 460 60 655 15 39 -9
89 -21 113 -26 24 -5 47 -12 52 -15 5 -3 28 -9 52 -14 24 -5 79 -18 123 -29
193 -48 235 -54 374 -55 151 0 189 8 308 66 115 56 243 168 385 337 25 30 96
114 156 185 211 251 318 333 557 430 50 20 99 40 110 44 11 5 40 17 65 26 25
10 59 23 75 30 17 7 46 18 65 25 93 33 208 89 285 139 165 107 225 183 305
386 30 74 70 358 70 492 0 51 4 123 10 160 5 38 14 104 19 148 17 136 30 196
61 270 33 80 84 176 142 270 38 61 74 119 81 130 7 11 22 34 34 52 13 17 23
35 23 39 0 4 6 15 14 23 28 32 124 217 151 291 60 167 67 290 27 465 -5 22
-15 54 -22 70 -7 17 -19 44 -26 62 -8 17 -14 33 -14 36 0 11 -87 159 -210 357
-70 113 -141 233 -158 267 -38 78 -82 203 -82 237 0 14 -4 35 -10 48 -12 28
-28 192 -39 388 -9 152 -27 310 -41 370 -48 192 -93 281 -195 385 -50 50 -119
105 -134 105 -6 0 -11 4 -11 8 0 4 -12 13 -27 19 -16 6 -46 21 -68 34 -55 30
-61 33 -151 69 -43 18 -93 38 -111 46 -17 8 -36 14 -42 14 -6 0 -19 4 -29 9
-9 5 -37 17 -62 26 -302 116 -431 203 -615 415 -17 19 -62 73 -100 120 -276
339 -401 444 -606 509 -93 29 -316 23 -469 -14 -36 -8 -83 -19 -105 -24 -69
-15 -139 -33 -160 -42 -11 -4 -36 -11 -55 -14 -19 -4 -48 -11 -65 -15 -16 -5
-65 -17 -108 -26 -105 -22 -376 -22 -460 0 -32 9 -71 16 -87 16 -16 0 -31 4
-34 9 -3 4 -25 11 -48 15 -24 4 -56 11 -73 16 -16 5 -59 16 -95 25 -36 9 -81
21 -100 26 -143 39 -327 56 -460 42z m280 -41 c36 -5 97 -17 135 -26 39 -10
95 -23 125 -31 30 -7 82 -21 115 -30 33 -10 78 -21 100 -25 44 -8 127 -26 193
-40 55 -13 300 -13 354 0 24 5 77 16 118 25 41 8 102 22 135 31 33 9 76 20 95
24 19 5 60 16 90 23 180 47 262 60 390 61 94 0 191 -14 227 -32 10 -6 36 -18
58 -28 123 -52 296 -219 515 -494 195 -246 331 -352 595 -466 76 -32 103 -43
145 -57 42 -14 75 -27 125 -48 11 -5 44 -18 74 -29 105 -40 243 -115 316 -170
41 -31 133 -127 148 -156 17 -32 54 -108 66 -139 38 -90 59 -248 91 -670 9
-126 27 -247 49 -331 22 -87 110 -267 184 -379 288 -434 362 -627 331 -861
-15 -111 -23 -137 -88 -274 -42 -88 -52 -106 -217 -372 -120 -194 -179 -304
-179 -331 0 -7 -4 -17 -9 -22 -18 -18 -58 -217 -67 -330 -2 -33 -11 -148 -19
-255 -23 -301 -38 -391 -87 -520 -44 -119 -173 -261 -293 -326 -11 -6 -42 -23
-69 -38 -52 -29 -212 -98 -286 -123 -25 -8 -58 -21 -75 -28 -16 -7 -50 -20
-75 -30 -25 -9 -54 -21 -65 -25 -204 -81 -343 -180 -497 -354 -123 -138 -132
-149 -149 -173 -30 -44 -115 -140 -209 -236 -111 -115 -190 -171 -320 -225
-53 -23 -195 -44 -250 -38 -105 12 -284 44 -360 65 -52 15 -139 38 -190 51
-40 10 -148 34 -230 50 -156 31 -342 19 -560 -35 -36 -9 -84 -20 -108 -25 -24
-6 -47 -12 -52 -15 -5 -3 -28 -10 -52 -15 -24 -5 -72 -17 -108 -26 -71 -17
-203 -40 -291 -50 -53 -6 -202 14 -254 35 -55 22 -155 76 -190 104 -43 34
-207 196 -240 237 -233 288 -343 407 -453 491 -76 57 -293 166 -410 205 -44
15 -68 24 -150 60 -18 8 -37 14 -42 14 -10 0 -168 71 -215 97 -135 73 -236
165 -296 268 -61 105 -119 329 -119 458 0 32 -4 100 -10 150 -5 51 -14 148
-20 217 -17 207 -22 233 -68 370 -14 39 -78 170 -131 265 -9 17 -40 65 -69
108 -29 43 -52 83 -52 88 0 5 -4 9 -9 9 -5 0 -11 8 -15 18 -3 9 -15 31 -25 47
-48 73 -160 294 -161 315 0 8 -8 35 -17 60 -11 33 -16 80 -16 175 0 121 2 137
33 224 18 52 50 127 71 167 39 74 197 335 209 344 4 3 9 12 13 20 4 8 11 22
17 30 52 80 140 247 140 265 0 4 6 21 14 38 34 78 62 240 77 452 28 396 28
402 69 565 33 134 148 288 278 373 95 62 231 126 382 182 75 27 85 31 150 58
19 8 60 25 90 37 149 61 245 117 340 199 82 71 109 101 358 396 227 270 350
360 567 414 44 10 183 7 285 -7z"/>
<path d="M3820 6075 c-89 -12 -168 -32 -185 -47 -5 -4 -15 -8 -21 -8 -25 0
-166 -93 -213 -141 -38 -37 -79 -96 -117 -168 -78 -148 -104 -250 -139 -556
-9 -77 -21 -174 -28 -215 -18 -113 -14 -302 7 -385 39 -151 92 -222 304 -404
209 -179 237 -209 286 -314 33 -71 42 -156 26 -262 -6 -44 -16 -111 -20 -150
-7 -63 -21 -154 -50 -340 -27 -180 -79 -255 -175 -255 -27 0 -44 8 -65 28 -39
40 -46 98 -26 214 19 111 30 184 51 338 9 63 23 160 31 216 9 56 14 116 12
135 l-3 34 -263 3 -262 2 -9 -22 c-5 -13 -12 -52 -15 -88 -4 -36 -11 -85 -16
-110 -5 -25 -16 -99 -25 -165 -9 -66 -21 -145 -26 -175 -56 -328 -49 -478 28
-639 98 -201 329 -304 612 -271 282 33 481 166 601 402 21 42 44 94 50 115 23
77 41 160 51 228 12 94 39 303 49 390 5 39 17 140 28 225 16 136 17 167 6 254
-16 122 -40 190 -94 266 -38 53 -73 83 -220 192 -74 55 -152 117 -173 137 -55
51 -123 148 -141 201 -18 50 -21 154 -7 209 6 20 17 95 27 166 34 264 62 403
87 436 14 19 70 49 91 49 32 0 75 -50 81 -94 6 -41 -11 -200 -50 -461 -27
-182 -35 -259 -27 -267 5 -5 127 -7 272 -6 l265 3 7 25 c3 14 12 70 18 125 16
136 25 209 44 350 29 210 31 267 11 373 -39 212 -134 336 -305 397 -47 17
-217 45 -260 43 -14 0 -63 -6 -110 -13z"/>
<path d="M4896 6023 c-7 -26 -42 -261 -57 -383 -4 -36 -15 -117 -24 -180 -9
-63 -19 -131 -21 -150 -3 -19 -10 -66 -16 -105 -5 -38 -14 -101 -18 -140 -5
-38 -14 -101 -19 -140 -6 -38 -16 -101 -21 -140 -5 -38 -16 -117 -24 -175 -8
-58 -22 -157 -31 -220 -21 -158 -34 -245 -46 -310 -5 -30 -14 -93 -19 -140 -5
-47 -17 -134 -26 -195 -8 -60 -18 -126 -20 -145 -10 -81 -35 -259 -44 -315 -5
-33 -12 -82 -15 -110 -3 -27 -10 -79 -15 -115 -20 -138 -40 -280 -55 -395 -9
-66 -20 -139 -25 -163 -6 -23 -10 -60 -10 -82 l0 -40 259 0 c239 0 260 1 265
18 3 9 12 69 20 132 9 63 23 167 31 230 9 63 20 147 25 185 5 39 16 120 24
180 23 159 46 328 57 420 5 44 12 91 15 105 3 14 10 59 14 100 23 198 43 270
54 199 8 -49 27 -263 36 -414 5 -71 16 -215 25 -320 9 -104 20 -244 24 -310
21 -308 33 -462 40 -490 l7 -30 263 0 264 0 12 41 c6 22 15 72 19 110 4 38 11
96 16 129 5 33 17 112 25 175 23 165 44 315 55 390 21 141 33 228 41 290 4 36
15 115 24 175 9 61 20 142 25 180 5 39 16 120 25 180 24 166 44 311 55 405 6
47 13 92 16 101 2 9 9 52 14 95 6 44 17 126 25 184 8 58 19 141 25 185 5 44
13 91 16 105 3 14 10 59 15 100 4 41 15 122 24 180 8 58 20 143 25 190 6 47
12 92 15 100 2 8 9 53 15 100 6 47 15 112 20 145 16 102 35 95 -250 95 -188 0
-251 -3 -257 -12 -4 -7 -11 -38 -15 -68 -6 -51 -13 -98 -54 -377 -8 -60 -19
-137 -24 -173 -5 -36 -16 -112 -25 -170 -8 -58 -20 -141 -25 -185 -6 -44 -13
-88 -16 -98 -3 -10 -9 -51 -14 -90 -25 -212 -57 -387 -72 -387 -4 0 -8 6 -9
13 -1 19 -17 225 -34 427 -8 102 -19 248 -25 325 -6 77 -12 154 -15 170 -3 17
-10 95 -15 175 -19 287 -32 425 -42 438 -8 9 -74 12 -269 12 -237 0 -258 -1
-263 -17z"/>
</g>
</svg>
